Coordinates
version=1
nRows=29
nColumns=24
inDegrees=yes

Units are S.I. units (second, meters, Newtons, ...)
Angles are in degrees.

endheader
time	pelvis_tilt	pelvis_list	pelvis_rotation	pelvis_tx	pelvis_ty	pelvis_tz	hip_flexion_r	hip_adduction_r	hip_rotation_r	knee_angle_r	ankle_angle_r	subtalar_angle_r	mtp_angle_r	hip_flexion_l	hip_adduction_l	hip_rotation_l	knee_angle_l	ankle_angle_l	subtalar_angle_l	mtp_angle_l	lumbar_extension	lumbar_bending	lumbar_rotation
      3.44500000	     -0.90314995	      5.55868211	     -2.45045654	     -0.38961913	      0.94074991	      0.21079169	     24.26961552	     -5.09974836	     -0.19766647	    -64.75863689	     12.65933636	    -12.09519245	      0.00000000	     11.16063724	     12.60308073	      3.36527563	    -20.88931723	     16.16413972	    -17.99897287	      0.00000000	     -9.53963651	     -9.73469152	    -12.02211699
      3.45000000	     -0.83041485	      5.32497625	     -2.29015059	     -0.38240393	      0.94192951	      0.21030722	     24.72149931	     -4.75302551	     -0.15504768	    -63.61335968	     12.97112952	    -12.04401333	      0.00000000	     10.26691791	     12.45984925	      3.82043545	    -20.34318130	     16.13205569	    -18.29284375	      0.00000000	     -9.65316883	     -9.38666292	    -12.14651765
      3.45500000	     -0.75675459	      5.10855043	     -2.11466864	     -0.37522973	      0.94303691	      0.20985896	     25.13581540	     -4.41944904	     -0.09952437	    -62.38024581	     13.23571794	    -12.06551872	      0.00000000	      9.38465601	     12.32435288	      4.28113293	    -19.81050831	     16.07120960	    -18.58007667	      0.00000000	     -9.77579251	     -9.07029975	    -12.29428756
      3.46000000	     -0.71102952	      4.90117400	     -1.93463175	     -0.36803945	      0.94399964	      0.20934710	     25.55173402	     -4.11415179	     -0.06443086	    -61.07221754	     13.43727720	    -12.16434195	      0.00000000	      8.54235735	     12.19070374	      4.68399172	    -19.28507892	     16.04042353	    -18.84515532	      0.00000000	     -9.85508875	     -8.74540750	    -12.43009626
      3.46500000	     -0.64691322	      4.71483710	     -1.73546209	     -0.36089081	      0.94490537	      0.20889449	     25.91167572	     -3.82833660	     -0.01626939	    -59.68315326	     13.59752947	    -12.31304275	      0.00000000	      7.68458421	     12.07037893	      5.11027837	    -18.75882947	     15.98578746	    -19.12783166	      0.00000000	     -9.96792626	     -8.46513010	    -12.61854523
      3.47000000	     -0.60533939	      4.54076989	     -1.53378175	     -0.35373783	      0.94567740	      0.20841381	     26.26477192	     -3.56829593	      0.02487392	    -58.21881765	     13.71395125	    -12.50834522	      0.00000000	      6.85970904	     11.95467752	      5.49409549	    -18.23894217	     15.94776285	    -19.39301215	      0.00000000	    -10.04727571	     -8.18817505	    -12.79187895
      3.47500000	     -0.56908428	      4.38223134	     -1.32558431	     -0.34658175	      0.94634549	      0.20792098	     26.59021284	     -3.33408951	      0.06920075	    -56.67997186	     13.79035506	    -12.73340047	      0.00000000	      6.04499304	     11.84885727	      5.86642425	    -17.72270852	     15.91500426	    -19.65188146	      0.00000000	    -10.11779169	     -7.92456782	    -12.97713355
      3.48000000	     -0.52952376	      4.24049814	     -1.11092528	     -0.33942986	      0.94691827	      0.20743967	     26.87827024	     -3.12780368	      0.11392336	    -55.06906158	     13.83991370	    -12.96846895	      0.00000000	      5.22936283	     11.75346763	      6.23671424	    -17.20785926	     15.88041668	    -19.91837797	      0.00000000	    -10.19383242	     -7.68492009	    -13.17818732
      3.48500000	     -0.50407962	      4.10952844	     -0.89339709	     -0.33228423	      0.94737555	      0.20696572	     27.14818664	     -2.93867611	      0.16771538	    -53.38689512	     13.85170495	    -13.20629440	      0.00000000	      4.43175348	     11.66145572	      6.59878136	    -16.69496418	     15.85565836	    -20.17098129	      0.00000000	    -10.25084171	     -7.45512677	    -13.38085556
      3.49000000	     -0.51639732	      3.97886386	     -0.68144918	     -0.32511179	      0.94766992	      0.20651488	     27.42686586	     -2.76332524	      0.20397756	    -51.63830563	     13.84604953	    -13.42091730	      0.00000000	      3.68200364	     11.55899776	      6.91303950	    -16.19414022	     15.87408490	    -20.39598990	      0.00000000	    -10.25563942	     -7.23392547	    -13.53947027
      3.49500000	     -0.45095650	      3.88766061	     -0.44753585	     -0.31798727	      0.94799205	      0.20602986	     27.58613856	     -2.63923582	      0.27040966	    -49.82466470	     13.80353969	    -13.61758868	      0.00000000	      2.83895414	     11.49812844	      7.33168281	    -15.68039681	     15.82465487	    -20.66475809	      0.00000000	    -10.36805628	     -7.04390917	    -13.81522001
      3.50000000	     -0.43263344	      3.79322455	     -0.22527079	     -0.31083581	      0.94813704	      0.20557261	     27.76462213	     -2.52106865	      0.32792331	    -47.95042879	     13.75560762	    -13.75554334	      0.00000000	      2.05653673	     11.42338020	      7.69828290	    -15.18408252	     15.81939514	    -20.91067837	      0.00000000	    -10.41659138	     -6.85700040	    -14.03605078
      3.50500000	     -0.42231649	      3.71142061	     -0.00185669	     -0.30368225	      0.94817887	      0.20513951	     27.92076312	     -2.42669244	      0.38182238	    -46.02130517	     13.68110800	    -13.83674658	      0.00000000	      1.28750115	     11.35127986	      8.06156229	    -14.69924998	     15.83476753	    -21.11743735	      0.00000000	    -10.45663927	     -6.68933584	    -14.26583524
      3.51000000	     -0.46879703	      3.62959673	      0.21528813	     -0.29650135	      0.94802871	      0.20471127	     28.10908209	     -2.34706193	      0.41296850	    -44.04296220	     13.60665552	    -13.83896634	      0.00000000	      0.59426548	     11.26958199	      8.36118184	    -14.24284461	     15.91320225	    -21.25602826	      0.00000000	    -10.42141228	     -6.52170022	    -14.43144933
      3.51500000	     -0.46504199	      3.55919610	      0.44437976	     -0.28933166	      0.94787462	      0.20431043	     28.20501862	     -2.28858907	      0.44514129	    -42.00771825	     13.50239617	    -13.77686210	      0.00000000	     -0.15437560	     11.19053582	      8.71784524	    -13.79160773	     15.97991033	    -21.39765859	      0.00000000	    -10.45661224	     -6.37431727	    -14.68216984
      3.52000000	     -0.41177828	      3.52880369	      0.67535946	     -0.28219248	      0.94769384	      0.20388654	     28.22829632	     -2.28528598	      0.48040450	    -39.94909088	     13.39153812	    -13.61949954	      0.00000000	     -0.96096406	     11.14689251	      9.10550235	    -13.33097805	     16.01210628	    -21.54885412	      0.00000000	    -10.56333766	     -6.26510454	    -14.97372217
      3.52500000	     -0.42002341	      3.49438718	      0.89535864	     -0.27501138	      0.94732144	      0.20348541	     28.29115669	     -2.28930021	      0.47753448	    -37.85627463	     13.28902292	    -13.36950113	      0.00000000	     -1.68364710	     11.09058853	      9.43715529	    -12.90782073	     16.10749215	    -21.63661405	      0.00000000	    -10.58815779	     -6.15430386	    -15.21069190
      3.53000000	     -0.42773400	      3.47353854	      1.10773651	     -0.26782175	      0.94685380	      0.20309466	     28.33409303	     -2.31750522	      0.44733899	    -35.74589274	     13.18896962	    -13.02478599	      0.00000000	     -2.39746979	     11.04016130	      9.74977169	    -12.50589705	     16.22920194	    -21.67905049	      0.00000000	    -10.61328230	     -6.06034206	    -15.45115037
      3.53500000	     -0.47382149	      3.45206009	      1.31841851	     -0.26058539	      0.94623351	      0.20271548	     28.40015104	     -2.35853975	      0.35812872	    -33.62769175	     13.09692881	    -12.59058181	      0.00000000	     -3.05869989	     10.98239737	     10.02071114	    -12.12959535	     16.40075698	    -21.67619655	      0.00000000	    -10.59162967	     -5.97015633	    -15.63959673
      3.54000000	     -0.43030719	      3.46423537	      1.53731004	     -0.25338325	      0.94566032	      0.20233929	     28.35681201	     -2.44037666	      0.25610659	    -31.51760039	     13.00706864	    -12.07777337	      0.00000000	     -3.82056504	     10.94800755	     10.33650760	    -11.74874510	     16.54072089	    -21.67043527	      0.00000000	    -10.69474315	     -5.91148449	    -15.93142714
      3.54500000	     -0.48262398	      3.46382551	      1.73367042	     -0.24609743	      0.94484935	      0.20199719	     28.41823621	     -2.51550786	      0.06406238	    -29.43820979	     12.91938120	    -11.48862627	      0.00000000	     -4.46887462	     10.89725006	     10.58261639	    -11.39121491	     16.74408455	    -21.61420298	      0.00000000	    -10.66489743	     -5.84886262	    -16.10705666
      3.55000000	     -0.45197405	      3.48923739	      1.94418134	     -0.23882995	      0.94407877	      0.20163636	     28.39093247	     -2.62706314	     -0.17717492	    -27.40596767	     12.85180694	    -10.81609969	      0.00000000	     -5.21008727	     10.86199827	     10.86538937	    -11.03231610	     16.93467256	    -21.53908386	      0.00000000	    -10.75089765	     -5.80782259	    -16.38214322
      3.55500000	     -0.47858942	      3.50216698	      2.13359381	     -0.23151154	      0.94313327	      0.20130811	     28.43051747	     -2.71869088	     -0.47320971	    -25.42436674	     12.79214434	    -10.11281074	      0.00000000	     -5.87057059	     10.81517722	     11.09622474	    -10.71061149	     17.15613036	    -21.46581211	      0.00000000	    -10.76031490	     -5.75920887	    -16.55119034
      3.56000000	     -0.46216535	      3.52581430	      2.32981484	     -0.22417698	      0.94217436	      0.20097804	     28.43839476	     -2.82645693	     -0.84750354	    -23.52700039	     12.75760387	     -9.34677262	      0.00000000	     -6.57855838	     10.76938040	     11.34511898	    -10.39340361	     17.38157342	    -21.36584717	      0.00000000	    -10.82616777	     -5.71504784	    -16.76982718
      3.56500000	     -0.44616461	      3.55147996	      2.51341781	     -0.21682866	      0.94113562	      0.20068407	     28.46838215	     -2.92506364	     -1.26369301	    -21.72776222	     12.73360669	     -8.56612195	      0.00000000	     -7.27871415	     10.72144389	     11.57375005	    -10.08884483	     17.61289735	    -21.26649581	      0.00000000	    -10.89477278	     -5.68020328	    -16.95913046
      3.57000000	     -0.43242068	      3.57313852	      2.69047961	     -0.20946418	      0.94002690	      0.20041465	     28.52330952	     -3.00980421	     -1.71771175	    -20.03882872	     12.71987588	     -7.78741800	      0.00000000	     -7.96657551	     10.66487009	     11.78541496	     -9.80320170	     17.85692363	    -21.15409331	      0.00000000	    -10.96390437	     -5.64202243	    -17.12788279
      3.57500000	     -0.41102576	      3.59340593	      2.85948055	     -0.20209126	      0.93886435	      0.20016896	     28.59777833	     -3.08182732	     -2.20463482	    -18.47718322	     12.72286987	     -7.02058944	      0.00000000	     -8.65147441	     10.60262033	     11.97818132	     -9.53852951	     18.11396496	    -21.02181648	      0.00000000	    -11.04494526	     -5.60243832	    -17.28239621
      3.58000000	     -0.38867717	      3.61056283	      3.01721775	     -0.19470678	      0.93764062	      0.19994629	     28.70119841	     -3.13628121	     -2.70161213	    -17.05664772	     12.74141031	     -6.29010329	      0.00000000	     -9.32394499	     10.53467562	     12.14366914	     -9.29901321	     18.38309741	    -20.86444319	      0.00000000	    -11.13169184	     -5.55868994	    -17.41464698
      3.58500000	     -0.37116751	      3.62345635	      3.16295797	     -0.18731458	      0.93635556	      0.19976058	     28.83822815	     -3.17013380	     -3.18792729	    -15.78152763	     12.76716221	     -5.62108867	      0.00000000	     -9.97394465	     10.46044549	     12.27455365	     -9.09005929	     18.67167621	    -20.67942299	      0.00000000	    -11.21539402	     -5.51353722	    -17.52101721
